<svg width="32" height="32" viewBox="0 0 32 32" fill="none" xmlns="http://www.w3.org/2000/svg">
<path d="M29.7791 4L27.6006 7.83313L27.5121 7.99981H13.9211C12.4725 7.99981 11.1123 8.38861 9.95106 9.06635C8.7457 9.76631 7.73939 10.7774 7.04273 11.9884C6.35708 13.1661 5.97007 14.5327 5.97007 15.9882C5.97007 17.4437 6.35708 18.8103 7.03162 19.9768C7.08696 20.0768 7.14221 20.1657 7.20856 20.2657L7.37449 19.9768L9.6415 15.9882L9.94005 15.4549L9.98428 15.3771V15.366L10.9132 13.7439C11.5325 12.6662 12.6715 11.9884 13.9101 11.9884H25.223L22.956 15.9882H14.9717L13.9211 17.8326L12.7931 19.8102L12.7047 19.9768L10.7915 23.3322L10.4266 23.9766L9.94005 24.821L8.81205 26.8209C7.77261 26.3208 6.82155 25.6876 5.97007 24.9209C5.64932 24.6432 5.35078 24.3432 5.07426 24.021L5.09638 23.9766H5.04113C4.01261 22.8211 3.20537 21.4656 2.68565 19.9768C2.24329 18.7324 2 17.3881 2 15.9882C2 14.5882 2.24329 13.244 2.68565 11.9884C3.20537 10.4997 4.01261 9.14419 5.04113 7.9887C5.32866 7.65534 5.64932 7.34428 5.98108 7.04433C7.12009 6.02212 8.46927 5.21111 9.95106 4.68885C11.1896 4.24442 12.5277 4 13.9211 4H24.4378C24.4378 4 24.4488 4 24.4488 4.01111V4H29.7791Z" fill="#4EA1FF"/>
<path d="M18.6684 24.0547L18.1318 25.0025L16.4646 27.9612C15.6767 28.123 14.866 28.204 14.021 28.204C12.9932 28.204 11.9884 28.0768 11.0293 27.8341L13.1645 24.0547H18.6684Z" fill="#4EA1FF"/>
</svg>
