<svg width="16" height="16" viewBox="0 0 16 16" fill="none" xmlns="http://www.w3.org/2000/svg">
<g clip-path="url(#clip0_249_180)">
<path d="M3.75701 13.6563L12.1433 5.26999L12.6592 10.9195C12.6713 11.0504 12.709 11.1777 12.7703 11.294C12.8315 11.4104 12.9151 11.5135 13.0162 11.5975C13.2204 11.7672 13.4836 11.8489 13.7481 11.8245C14.0125 11.8001 14.2564 11.6717 14.4261 11.4675C14.5959 11.2633 14.6775 11 14.6532 10.7356L13.9464 2.95777C13.9365 2.90024 13.9223 2.84352 13.904 2.78807C13.8687 2.75272 13.8828 2.69616 13.8616 2.64666C13.8126 2.53354 13.7431 2.43046 13.6566 2.34263C13.5687 2.25612 13.4657 2.18661 13.3525 2.13759C13.3172 2.10224 13.2606 2.11638 13.2111 2.09517C13.1557 2.07689 13.099 2.06271 13.0414 2.05275L5.26363 1.34603C5.11733 1.3327 4.96989 1.35177 4.8318 1.40188C4.6937 1.45199 4.56834 1.53191 4.46462 1.63596C4.29908 1.80086 4.19651 2.01851 4.1747 2.25113C4.16245 2.38209 4.17616 2.51417 4.21504 2.63982C4.25392 2.76546 4.31721 2.8822 4.40127 2.98335C4.48534 3.08449 4.58854 3.16806 4.70495 3.22925C4.82137 3.29045 4.94872 3.32808 5.0797 3.33999L10.7292 3.8559L2.34292 12.2422C2.15539 12.4297 2.05002 12.6841 2.05001 12.9493C2.05 13.2145 2.15534 13.4688 2.34286 13.6563C2.53038 13.8439 2.78472 13.9492 3.04992 13.9492C3.31513 13.9492 3.56947 13.8438 3.75701 13.6563Z" fill="#D9D9D9"/>
</g>
<defs>
<clipPath id="clip0_249_180">
<rect width="16" height="16" fill="white"/>
</clipPath>
</defs>
</svg>
