<svg width="16" height="16" viewBox="0 0 16 16" fill="none" xmlns="http://www.w3.org/2000/svg">
<path d="M8.62238 13C3.83916 13 1.11189 9.6277 1 4.00721H3.40559C3.48252 8.1289 5.24476 9.8727 6.64336 10.233L6.64336 4.00721H8.9021V7.55965C10.2797 7.40833 11.7343 5.78703 12.2238 4H14.4755C14.2919 4.92505 13.9252 5.80115 13.3982 6.57356C12.8711 7.34597 12.1952 7.9981 11.4126 8.48919C12.286 8.93712 13.0573 9.57074 13.6756 10.3483C14.294 11.1258 14.7454 12.0296 15 13H12.5175C11.986 11.2922 10.6573 9.96637 8.9021 9.78623L8.9021 13H8.62937H8.62238Z" fill="#D9D9D9"/>
</svg>
